<?xml version="1.0" encoding="UTF-8" standalone="no"?>
<!DOCTYPE svg PUBLIC "-//W3C//DTD SVG 1.1//EN"
 "http://www.w3.org/Graphics/SVG/1.1/DTD/svg11.dtd">
<!-- Generated by graphviz version 2.36.0 (20140111.2315)
 -->
<!-- Title: G Pages: 1 -->
<svg width="854pt" height="232pt"
 viewBox="0.00 0.00 854.00 232.00" xmlns="http://www.w3.org/2000/svg" xmlns:xlink="http://www.w3.org/1999/xlink">
<g id="graph0" class="graph" transform="scale(1 1) rotate(0) translate(4 228)">
<title>G</title>
<polygon fill="white" stroke="none" points="-4,4 -4,-228 850,-228 850,4 -4,4"/>
<!-- idres -->
<g id="node1" class="node"><title>idres</title>
<ellipse fill="none" stroke="black" cx="465" cy="-142" rx="56.6372" ry="48.1667"/>
<text text-anchor="middle" x="465" y="-160.8" font-family="Times,serif" font-size="14.00">Identity</text>
<text text-anchor="middle" x="465" y="-145.8" font-family="Times,serif" font-size="14.00">Resolution</text>
<text text-anchor="middle" x="465" y="-130.8" font-family="Times,serif" font-size="14.00">and</text>
<text text-anchor="middle" x="465" y="-115.8" font-family="Times,serif" font-size="14.00">Enrichment</text>
</g>
<!-- vesseldb -->
<g id="node2" class="node"><title>vesseldb</title>
<polygon fill="none" stroke="black" points="533.351,-76 424.62,-76 396.649,-3.55271e-14 505.38,-1.42109e-14 533.351,-76"/>
<text text-anchor="middle" x="465" y="-41.8" font-family="Times,serif" font-size="14.00">Vessel</text>
<text text-anchor="middle" x="465" y="-26.8" font-family="Times,serif" font-size="14.00">Database</text>
</g>
<!-- idres&#45;&gt;vesseldb -->
<g id="edge1" class="edge"><title>idres&#45;&gt;vesseldb</title>
<path fill="none" stroke="black" d="M465,-93.926C465,-88.0132 465,-82.1003 465,-76.1875"/>
</g>
<!-- postprocess -->
<g id="node10" class="node"><title>postprocess</title>
<ellipse fill="none" stroke="black" cx="631" cy="-142" rx="60.623" ry="26.7407"/>
<text text-anchor="middle" x="631" y="-145.8" font-family="Times,serif" font-size="14.00">further</text>
<text text-anchor="middle" x="631" y="-130.8" font-family="Times,serif" font-size="14.00">processing...</text>
</g>
<!-- idres&#45;&gt;postprocess -->
<g id="edge9" class="edge"><title>idres&#45;&gt;postprocess</title>
<path fill="none" stroke="black" d="M521.981,-142C534.208,-142 547.297,-142 559.994,-142"/>
<polygon fill="black" stroke="black" points="560.068,-145.5 570.068,-142 560.068,-138.5 560.068,-145.5"/>
</g>
<!-- AIS -->
<g id="node3" class="node"><title>AIS</title>
<polygon fill="none" stroke="black" points="45,-218.5 3,-218.5 3,-187.5 45,-187.5 57,-203 45,-218.5"/>
<text text-anchor="middle" x="30" y="-199.3" font-family="Times,serif" font-size="14.00">AIS</text>
</g>
<!-- vdm2cdf -->
<g id="node4" class="node"><title>vdm2cdf</title>
<ellipse fill="none" stroke="black" cx="138" cy="-199" rx="42.4939" ry="18"/>
<text text-anchor="middle" x="138" y="-195.3" font-family="Times,serif" font-size="14.00">vdm2cdf</text>
</g>
<!-- AIS&#45;&gt;vdm2cdf -->
<g id="edge2" class="edge"><title>AIS&#45;&gt;vdm2cdf</title>
<path fill="none" stroke="black" d="M57.2023,-202.011C65.8476,-201.685 75.784,-201.31 85.6443,-200.938"/>
<polygon fill="black" stroke="black" points="85.9742,-204.428 95.8351,-200.553 85.7102,-197.433 85.9742,-204.428"/>
</g>
<!-- preprocess -->
<g id="node9" class="node"><title>preprocess</title>
<ellipse fill="none" stroke="black" cx="288" cy="-142" rx="71.3357" ry="37.4533"/>
<text text-anchor="middle" x="288" y="-153.3" font-family="Times,serif" font-size="14.00">downsampling,</text>
<text text-anchor="middle" x="288" y="-138.3" font-family="Times,serif" font-size="14.00">archiving,</text>
<text text-anchor="middle" x="288" y="-123.3" font-family="Times,serif" font-size="14.00">etc...</text>
</g>
<!-- vdm2cdf&#45;&gt;preprocess -->
<g id="edge5" class="edge"><title>vdm2cdf&#45;&gt;preprocess</title>
<path fill="none" stroke="black" d="M170.026,-187.051C184.687,-181.404 202.792,-174.431 220.341,-167.673"/>
<polygon fill="black" stroke="black" points="221.934,-170.81 230.008,-163.949 219.419,-164.277 221.934,-170.81"/>
</g>
<!-- LRIT -->
<g id="node5" class="node"><title>LRIT</title>
<polygon fill="none" stroke="black" points="47.5,-157.5 0.5,-157.5 0.5,-126.5 47.5,-126.5 59.5,-142 47.5,-157.5"/>
<text text-anchor="middle" x="30" y="-138.3" font-family="Times,serif" font-size="14.00">LRIT</text>
</g>
<!-- lrit2cdf -->
<g id="node6" class="node"><title>lrit2cdf</title>
<ellipse fill="none" stroke="black" cx="138" cy="-142" rx="36.2938" ry="18"/>
<text text-anchor="middle" x="138" y="-138.3" font-family="Times,serif" font-size="14.00">lrit2cdf</text>
</g>
<!-- LRIT&#45;&gt;lrit2cdf -->
<g id="edge3" class="edge"><title>LRIT&#45;&gt;lrit2cdf</title>
<path fill="none" stroke="black" d="M59.6851,-142C69.4425,-142 80.6037,-142 91.3534,-142"/>
<polygon fill="black" stroke="black" points="91.4744,-145.5 101.474,-142 91.4743,-138.5 91.4744,-145.5"/>
</g>
<!-- lrit2cdf&#45;&gt;preprocess -->
<g id="edge6" class="edge"><title>lrit2cdf&#45;&gt;preprocess</title>
<path fill="none" stroke="black" d="M174.45,-142C184.14,-142 195.053,-142 206.175,-142"/>
<polygon fill="black" stroke="black" points="206.417,-145.5 216.417,-142 206.417,-138.5 206.417,-145.5"/>
</g>
<!-- VMS -->
<g id="node7" class="node"><title>VMS</title>
<polygon fill="none" stroke="black" points="47.5,-96.5 0.5,-96.5 0.5,-65.5 47.5,-65.5 59.5,-81 47.5,-96.5"/>
<text text-anchor="middle" x="30" y="-77.3" font-family="Times,serif" font-size="14.00">VMS</text>
</g>
<!-- vmshttp -->
<g id="node8" class="node"><title>vmshttp</title>
<ellipse fill="none" stroke="black" cx="138" cy="-85" rx="39.7935" ry="18"/>
<text text-anchor="middle" x="138" y="-81.3" font-family="Times,serif" font-size="14.00">vmshttp</text>
</g>
<!-- VMS&#45;&gt;vmshttp -->
<g id="edge4" class="edge"><title>VMS&#45;&gt;vmshttp</title>
<path fill="none" stroke="black" d="M59.6851,-82.0825C68.5133,-82.4156 78.4905,-82.7921 88.2724,-83.1612"/>
<polygon fill="black" stroke="black" points="88.2142,-86.6614 98.3391,-83.5411 88.4782,-79.6664 88.2142,-86.6614"/>
</g>
<!-- vmshttp&#45;&gt;preprocess -->
<g id="edge7" class="edge"><title>vmshttp&#45;&gt;preprocess</title>
<path fill="none" stroke="black" d="M168.95,-96.5348C183.911,-102.297 202.649,-109.513 220.759,-116.488"/>
<polygon fill="black" stroke="black" points="219.56,-119.777 230.15,-120.105 222.076,-113.245 219.56,-119.777"/>
</g>
<!-- preprocess&#45;&gt;idres -->
<g id="edge8" class="edge"><title>preprocess&#45;&gt;idres</title>
<path fill="none" stroke="black" d="M359.423,-142C372.238,-142 385.561,-142 398.236,-142"/>
<polygon fill="black" stroke="black" points="398.239,-145.5 408.239,-142 398.238,-138.5 398.239,-145.5"/>
</g>
<!-- app1 -->
<g id="node11" class="node"><title>app1</title>
<ellipse fill="none" stroke="black" cx="787" cy="-196" rx="59.2899" ry="18"/>
<text text-anchor="middle" x="787" y="-192.3" font-family="Times,serif" font-size="14.00">Application 1</text>
</g>
<!-- postprocess&#45;&gt;app1 -->
<g id="edge10" class="edge"><title>postprocess&#45;&gt;app1</title>
<path fill="none" stroke="black" d="M679.042,-158.495C697.722,-165.045 719.19,-172.573 737.967,-179.157"/>
<polygon fill="black" stroke="black" points="736.917,-182.498 747.512,-182.504 739.233,-175.892 736.917,-182.498"/>
</g>
<!-- app2 -->
<g id="node12" class="node"><title>app2</title>
<ellipse fill="none" stroke="black" cx="787" cy="-142" rx="59.2899" ry="18"/>
<text text-anchor="middle" x="787" y="-138.3" font-family="Times,serif" font-size="14.00">Application 2</text>
</g>
<!-- postprocess&#45;&gt;app2 -->
<g id="edge11" class="edge"><title>postprocess&#45;&gt;app2</title>
<path fill="none" stroke="black" d="M691.981,-142C700.327,-142 708.954,-142 717.442,-142"/>
<polygon fill="black" stroke="black" points="717.699,-145.5 727.699,-142 717.699,-138.5 717.699,-145.5"/>
</g>
<!-- app3 -->
<g id="node13" class="node"><title>app3</title>
<ellipse fill="none" stroke="black" cx="787" cy="-88" rx="59.2899" ry="18"/>
<text text-anchor="middle" x="787" y="-84.3" font-family="Times,serif" font-size="14.00">Application 3</text>
</g>
<!-- postprocess&#45;&gt;app3 -->
<g id="edge12" class="edge"><title>postprocess&#45;&gt;app3</title>
<path fill="none" stroke="black" d="M679.042,-125.505C697.722,-118.955 719.19,-111.427 737.967,-104.843"/>
<polygon fill="black" stroke="black" points="739.233,-108.108 747.512,-101.496 736.917,-101.502 739.233,-108.108"/>
</g>
</g>
</svg>
