<?xml version="1.0" encoding="UTF-8" standalone="no"?>
<!DOCTYPE svg PUBLIC "-//W3C//DTD SVG 1.1//EN"
 "http://www.w3.org/Graphics/SVG/1.1/DTD/svg11.dtd">
<!-- Generated by graphviz version 2.36.0 (20140111.2315)
 -->
<!-- Title: G Pages: 1 -->
<svg width="452pt" height="302pt"
 viewBox="0.00 0.00 452.00 302.00" xmlns="http://www.w3.org/2000/svg" xmlns:xlink="http://www.w3.org/1999/xlink">
<g id="graph0" class="graph" transform="scale(1 1) rotate(0) translate(4 298)">
<title>G</title>
<polygon fill="white" stroke="none" points="-4,4 -4,-298 448,-298 448,4 -4,4"/>
<g id="clust1" class="cluster"><title>cluster_service</title>
<polygon fill="none" stroke="black" points="278,-28 278,-265 436,-265 436,-28 278,-28"/>
<text text-anchor="middle" x="357" y="-249.8" font-family="Times,serif" font-size="14.00">IDRES Service</text>
</g>
<g id="clust2" class="cluster"><title>cluster_app1</title>
<polygon fill="none" stroke="black" points="8,-151 8,-286 258,-286 258,-151 8,-151"/>
<text text-anchor="middle" x="133" y="-270.8" font-family="Times,serif" font-size="14.00">Application 1</text>
</g>
<g id="clust3" class="cluster"><title>cluster_app2</title>
<polygon fill="none" stroke="black" points="8,-8 8,-143 258,-143 258,-8 8,-8"/>
<text text-anchor="middle" x="133" y="-127.8" font-family="Times,serif" font-size="14.00">Application 2</text>
</g>
<!-- serviceNode1 -->
<g id="node1" class="node"><title>serviceNode1</title>
<ellipse fill="none" stroke="black" cx="357" cy="-63" rx="70.922" ry="26.7407"/>
<text text-anchor="middle" x="357" y="-66.8" font-family="Times,serif" font-size="14.00">IDRES Service</text>
<text text-anchor="middle" x="357" y="-51.8" font-family="Times,serif" font-size="14.00">Node 1</text>
</g>
<!-- serviceNode2 -->
<g id="node2" class="node"><title>serviceNode2</title>
<ellipse fill="none" stroke="black" cx="357" cy="-207" rx="70.922" ry="26.7407"/>
<text text-anchor="middle" x="357" y="-210.8" font-family="Times,serif" font-size="14.00">IDRES Service</text>
<text text-anchor="middle" x="357" y="-195.8" font-family="Times,serif" font-size="14.00">Node 2</text>
</g>
<!-- serviceNode3 -->
<g id="node3" class="node"><title>serviceNode3</title>
<ellipse fill="none" stroke="black" cx="357" cy="-135" rx="70.922" ry="26.7407"/>
<text text-anchor="middle" x="357" y="-138.8" font-family="Times,serif" font-size="14.00">IDRES Service</text>
<text text-anchor="middle" x="357" y="-123.8" font-family="Times,serif" font-size="14.00">Node 3</text>
</g>
<!-- appCode1 -->
<g id="node4" class="node"><title>appCode1</title>
<ellipse fill="none" stroke="black" cx="73" cy="-207" rx="56.6372" ry="26.7407"/>
<text text-anchor="middle" x="73" y="-210.8" font-family="Times,serif" font-size="14.00">Application</text>
<text text-anchor="middle" x="73" y="-195.8" font-family="Times,serif" font-size="14.00">Code</text>
</g>
<!-- client1 -->
<g id="node5" class="node"><title>client1</title>
<ellipse fill="none" stroke="red" cx="208" cy="-207" rx="41.9398" ry="48.1667"/>
<text text-anchor="middle" x="208" y="-225.8" font-family="Times,serif" font-size="14.00">IDRES</text>
<text text-anchor="middle" x="208" y="-210.8" font-family="Times,serif" font-size="14.00">Lookup</text>
<text text-anchor="middle" x="208" y="-195.8" font-family="Times,serif" font-size="14.00">Client</text>
<text text-anchor="middle" x="208" y="-180.8" font-family="Times,serif" font-size="14.00">Library</text>
</g>
<!-- appCode1&#45;&gt;client1 -->
<g id="edge1" class="edge"><title>appCode1&#45;&gt;client1</title>
<path fill="none" stroke="black" d="M129.633,-207C138.338,-207 147.297,-207 155.894,-207"/>
<polygon fill="black" stroke="black" points="156.158,-210.5 166.158,-207 156.158,-203.5 156.158,-210.5"/>
</g>
<!-- client1&#45;&gt;serviceNode1 -->
<g id="edge2" class="edge"><title>client1&#45;&gt;serviceNode1</title>
<path fill="none" stroke="black" d="M240.535,-176.108C265,-152.143 298.794,-119.039 323.5,-94.8368"/>
<polygon fill="black" stroke="black" points="326.161,-97.1298 330.855,-87.6317 321.262,-92.1293 326.161,-97.1298"/>
</g>
<!-- client1&#45;&gt;serviceNode2 -->
<g id="edge3" class="edge"><title>client1&#45;&gt;serviceNode2</title>
<path fill="none" stroke="black" d="M249.948,-207C258.157,-207 267.045,-207 276.064,-207"/>
<polygon fill="black" stroke="black" points="276.272,-210.5 286.272,-207 276.272,-203.5 276.272,-210.5"/>
</g>
<!-- client1&#45;&gt;serviceNode3 -->
<g id="edge4" class="edge"><title>client1&#45;&gt;serviceNode3</title>
<path fill="none" stroke="black" d="M246.856,-188.458C264.328,-179.9 285.346,-169.606 304.254,-160.345"/>
<polygon fill="black" stroke="black" points="305.9,-163.436 313.341,-155.894 302.821,-157.15 305.9,-163.436"/>
</g>
<!-- appCode2 -->
<g id="node6" class="node"><title>appCode2</title>
<ellipse fill="none" stroke="black" cx="73" cy="-64" rx="56.6372" ry="26.7407"/>
<text text-anchor="middle" x="73" y="-67.8" font-family="Times,serif" font-size="14.00">Application</text>
<text text-anchor="middle" x="73" y="-52.8" font-family="Times,serif" font-size="14.00">Code</text>
</g>
<!-- client2 -->
<g id="node7" class="node"><title>client2</title>
<ellipse fill="none" stroke="red" cx="208" cy="-64" rx="41.9398" ry="48.1667"/>
<text text-anchor="middle" x="208" y="-82.8" font-family="Times,serif" font-size="14.00">IDRES</text>
<text text-anchor="middle" x="208" y="-67.8" font-family="Times,serif" font-size="14.00">Lookup</text>
<text text-anchor="middle" x="208" y="-52.8" font-family="Times,serif" font-size="14.00">Client</text>
<text text-anchor="middle" x="208" y="-37.8" font-family="Times,serif" font-size="14.00">Library</text>
</g>
<!-- appCode2&#45;&gt;client2 -->
<g id="edge5" class="edge"><title>appCode2&#45;&gt;client2</title>
<path fill="none" stroke="black" d="M129.633,-64C138.338,-64 147.297,-64 155.894,-64"/>
<polygon fill="black" stroke="black" points="156.158,-67.5001 166.158,-64 156.158,-60.5001 156.158,-67.5001"/>
</g>
<!-- client2&#45;&gt;serviceNode1 -->
<g id="edge6" class="edge"><title>client2&#45;&gt;serviceNode1</title>
<path fill="none" stroke="black" d="M249.948,-63.7214C258.157,-63.6656 267.045,-63.6051 276.064,-63.5438"/>
<polygon fill="black" stroke="black" points="276.296,-67.0424 286.272,-63.4743 276.248,-60.0425 276.296,-67.0424"/>
</g>
<!-- client2&#45;&gt;serviceNode2 -->
<g id="edge7" class="edge"><title>client2&#45;&gt;serviceNode2</title>
<path fill="none" stroke="black" d="M240.535,-94.6771C264.847,-118.328 298.372,-150.94 323.036,-174.933"/>
<polygon fill="black" stroke="black" points="320.777,-177.618 330.385,-182.082 325.658,-172.601 320.777,-177.618"/>
</g>
<!-- client2&#45;&gt;serviceNode3 -->
<g id="edge8" class="edge"><title>client2&#45;&gt;serviceNode3</title>
<path fill="none" stroke="black" d="M246.856,-82.2843C264.255,-90.6879 285.171,-100.79 304.016,-109.892"/>
<polygon fill="black" stroke="black" points="302.55,-113.071 313.077,-114.269 305.595,-106.768 302.55,-113.071"/>
</g>
</g>
</svg>
