<?xml version="1.0" encoding="UTF-8" standalone="no"?>
<!DOCTYPE svg PUBLIC "-//W3C//DTD SVG 1.1//EN"
 "http://www.w3.org/Graphics/SVG/1.1/DTD/svg11.dtd">
<!-- Generated by graphviz version 2.36.0 (20140111.2315)
 -->
<!-- Title: G Pages: 1 -->
<svg width="618pt" height="191pt"
 viewBox="0.00 0.00 618.00 191.00" xmlns="http://www.w3.org/2000/svg" xmlns:xlink="http://www.w3.org/1999/xlink">
<g id="graph0" class="graph" transform="scale(1 1) rotate(0) translate(4 187)">
<title>G</title>
<polygon fill="white" stroke="none" points="-4,4 -4,-187 614,-187 614,4 -4,4"/>
<g id="clust1" class="cluster"><title>cluster_0</title>
<polygon fill="none" stroke="black" points="8,-100 8,-175 258,-175 258,-100 8,-100"/>
<text text-anchor="middle" x="133" y="-159.8" font-family="Times,serif" font-size="14.00">boo</text>
</g>
<!-- n0 -->
<g id="node1" class="node"><title>n0</title>
<ellipse fill="none" stroke="black" cx="43" cy="-72" rx="27" ry="18"/>
<text text-anchor="middle" x="43" y="-68.3" font-family="Times,serif" font-size="14.00">n0</text>
</g>
<!-- n2 -->
<g id="node2" class="node"><title>n2</title>
<ellipse fill="none" stroke="black" cx="133" cy="-45" rx="27" ry="18"/>
<text text-anchor="middle" x="133" y="-41.3" font-family="Times,serif" font-size="14.00">n2</text>
</g>
<!-- n0&#45;&#45;n2 -->
<g id="edge1" class="edge"><title>n0&#45;&#45;n2</title>
<path fill="none" stroke="black" d="M68.0464,-64.6221C80.5651,-60.7812 95.8178,-56.1014 108.287,-52.2755"/>
</g>
<!-- n3 -->
<g id="node4" class="node"><title>n3</title>
<ellipse fill="none" stroke="black" cx="223" cy="-45" rx="27" ry="18"/>
<text text-anchor="middle" x="223" y="-41.3" font-family="Times,serif" font-size="14.00">n3</text>
</g>
<!-- n2&#45;&#45;n3 -->
<g id="edge3" class="edge"><title>n2&#45;&#45;n3</title>
<path fill="none" stroke="black" d="M160.403,-45C171.642,-45 184.715,-45 195.919,-45"/>
</g>
<!-- n1 -->
<g id="node3" class="node"><title>n1</title>
<ellipse fill="none" stroke="black" cx="43" cy="-18" rx="27" ry="18"/>
<text text-anchor="middle" x="43" y="-14.3" font-family="Times,serif" font-size="14.00">n1</text>
</g>
<!-- n1&#45;&#45;n2 -->
<g id="edge2" class="edge"><title>n1&#45;&#45;n2</title>
<path fill="none" stroke="black" d="M68.0464,-25.3779C80.5651,-29.2188 95.8178,-33.8986 108.287,-37.7245"/>
</g>
<!-- n4 -->
<g id="node5" class="node"><title>n4</title>
<ellipse fill="none" stroke="black" cx="313" cy="-68" rx="27" ry="18"/>
<text text-anchor="middle" x="313" y="-64.3" font-family="Times,serif" font-size="14.00">n4</text>
</g>
<!-- n3&#45;&#45;n4 -->
<g id="edge4" class="edge"><title>n3&#45;&#45;n4</title>
<path fill="none" stroke="black" d="M248.513,-51.4068C260.718,-54.5969 275.431,-58.4422 287.619,-61.6276"/>
</g>
<!-- n5 -->
<g id="node6" class="node"><title>n5</title>
<ellipse fill="none" stroke="black" cx="493" cy="-22" rx="27" ry="18"/>
<text text-anchor="middle" x="493" y="-18.3" font-family="Times,serif" font-size="14.00">n5</text>
</g>
<!-- n3&#45;&#45;n5 -->
<g id="edge5" class="edge"><title>n3&#45;&#45;n5</title>
<path fill="none" stroke="black" d="M250.185,-42.7528C301.552,-38.3444 414.969,-28.6108 466.103,-24.2225"/>
</g>
<!-- n6 -->
<g id="node7" class="node"><title>n6</title>
<ellipse fill="none" stroke="black" cx="403" cy="-68" rx="27" ry="18"/>
<text text-anchor="middle" x="403" y="-64.3" font-family="Times,serif" font-size="14.00">n6</text>
</g>
<!-- n4&#45;&#45;n6 -->
<g id="edge6" class="edge"><title>n4&#45;&#45;n6</title>
<path fill="none" stroke="black" d="M340.403,-68C351.642,-68 364.715,-68 375.919,-68"/>
</g>
<!-- n7 -->
<g id="node8" class="node"><title>n7</title>
<ellipse fill="none" stroke="black" cx="583" cy="-22" rx="27" ry="18"/>
<text text-anchor="middle" x="583" y="-18.3" font-family="Times,serif" font-size="14.00">n7</text>
</g>
<!-- n5&#45;&#45;n7 -->
<g id="edge7" class="edge"><title>n5&#45;&#45;n7</title>
<path fill="none" stroke="black" d="M520.403,-22C531.642,-22 544.715,-22 555.919,-22"/>
</g>
<!-- n6&#45;&#45;n5 -->
<g id="edge8" class="edge"><title>n6&#45;&#45;n5</title>
<path fill="none" stroke="black" d="M424.855,-57.0986C438.883,-49.7659 457.298,-40.1395 471.295,-32.8231"/>
</g>
<!-- n8 -->
<g id="node9" class="node"><title>n8</title>
<ellipse fill="none" stroke="black" cx="493" cy="-76" rx="27" ry="18"/>
<text text-anchor="middle" x="493" y="-72.3" font-family="Times,serif" font-size="14.00">n8</text>
</g>
<!-- n6&#45;&#45;n8 -->
<g id="edge9" class="edge"><title>n6&#45;&#45;n8</title>
<path fill="none" stroke="black" d="M429.927,-70.357C441.283,-71.3894 454.584,-72.5986 465.954,-73.6322"/>
</g>
<!-- n8&#45;&#45;n7 -->
<g id="edge10" class="edge"><title>n8&#45;&#45;n7</title>
<path fill="none" stroke="black" d="M513.53,-64.0156C528.113,-55.0669 547.955,-42.8915 562.525,-33.9508"/>
</g>
<!-- n9 -->
<g id="node10" class="node"><title>n9</title>
<ellipse fill="none" stroke="black" cx="583" cy="-76" rx="27" ry="18"/>
<text text-anchor="middle" x="583" y="-72.3" font-family="Times,serif" font-size="14.00">n9</text>
</g>
<!-- n8&#45;&#45;n9 -->
<g id="edge11" class="edge"><title>n8&#45;&#45;n9</title>
<path fill="none" stroke="black" d="M520.403,-76C531.642,-76 544.715,-76 555.919,-76"/>
</g>
<!-- n10 -->
<g id="node11" class="node"><title>n10</title>
<ellipse fill="none" stroke="black" cx="583" cy="-130" rx="27" ry="18"/>
<text text-anchor="middle" x="583" y="-126.3" font-family="Times,serif" font-size="14.00">n10</text>
</g>
<!-- n8&#45;&#45;n10 -->
<g id="edge12" class="edge"><title>n8&#45;&#45;n10</title>
<path fill="none" stroke="black" d="M513.53,-87.9844C528.113,-96.9331 547.955,-109.108 562.525,-118.049"/>
</g>
<!-- a -->
<g id="node12" class="node"><title>a</title>
<ellipse fill="none" stroke="black" cx="43" cy="-126" rx="27" ry="18"/>
<text text-anchor="middle" x="43" y="-122.3" font-family="Times,serif" font-size="14.00">a</text>
</g>
<!-- b -->
<g id="node13" class="node"><title>b</title>
<ellipse fill="none" stroke="black" cx="133" cy="-126" rx="27" ry="18"/>
<text text-anchor="middle" x="133" y="-122.3" font-family="Times,serif" font-size="14.00">b</text>
</g>
<!-- a&#45;&#45;b -->
<g id="edge13" class="edge"><title>a&#45;&#45;b</title>
<path fill="none" stroke="black" d="M70.4029,-126C81.6421,-126 94.7152,-126 105.919,-126"/>
</g>
<!-- c -->
<g id="node14" class="node"><title>c</title>
<ellipse fill="none" stroke="black" cx="223" cy="-126" rx="27" ry="18"/>
<text text-anchor="middle" x="223" y="-122.3" font-family="Times,serif" font-size="14.00">c</text>
</g>
<!-- b&#45;&#45;c -->
<g id="edge14" class="edge"><title>b&#45;&#45;c</title>
<path fill="none" stroke="black" d="M160.403,-126C171.642,-126 184.715,-126 195.919,-126"/>
</g>
</g>
</svg>
