<?xml version="1.0" encoding="UTF-8" standalone="no"?>
<!DOCTYPE svg PUBLIC "-//W3C//DTD SVG 1.1//EN"
 "http://www.w3.org/Graphics/SVG/1.1/DTD/svg11.dtd">
<!-- Generated by graphviz version 2.36.0 (20140111.2315)
 -->
<!-- Title: G Pages: 1 -->
<svg width="384pt" height="146pt"
 viewBox="0.00 0.00 384.00 146.00" xmlns="http://www.w3.org/2000/svg" xmlns:xlink="http://www.w3.org/1999/xlink">
<g id="graph0" class="graph" transform="scale(1 1) rotate(0) translate(4 142)">
<title>G</title>
<polygon fill="white" stroke="none" points="-4,4 -4,-142 380,-142 380,4 -4,4"/>
<!-- stream -->
<g id="node1" class="node"><title>stream</title>
<polygon fill="none" stroke="black" points="90,-97 7.10543e-15,-97 7.10543e-15,-51 90,-51 102,-74 90,-97"/>
<text text-anchor="middle" x="51" y="-77.8" font-family="Times,serif" font-size="14.00">Position Data</text>
<text text-anchor="middle" x="51" y="-62.8" font-family="Times,serif" font-size="14.00">Stream</text>
</g>
<!-- idres -->
<g id="node2" class="node"><title>idres</title>
<polygon fill="none" stroke="black" points="197,-92 141,-92 141,-56 197,-56 197,-92"/>
<text text-anchor="middle" x="169" y="-70.3" font-family="Times,serif" font-size="14.00">IDRES</text>
</g>
<!-- stream&#45;&gt;idres -->
<g id="edge1" class="edge"><title>stream&#45;&gt;idres</title>
<path fill="none" stroke="black" d="M102.205,-74C111.711,-74 121.501,-74 130.53,-74"/>
<polygon fill="black" stroke="black" points="130.716,-77.5001 140.716,-74 130.716,-70.5001 130.716,-77.5001"/>
</g>
<!-- store -->
<g id="node3" class="node"><title>store</title>
<polygon fill="none" stroke="black" points="199.5,-38 138.5,-38 138.5,-0 199.5,-0 199.5,-38"/>
<text text-anchor="middle" x="169" y="-22.8" font-family="Times,serif" font-size="14.00">Position</text>
<text text-anchor="middle" x="169" y="-7.8" font-family="Times,serif" font-size="14.00">Store</text>
</g>
<!-- stream&#45;&gt;store -->
<g id="edge2" class="edge"><title>stream&#45;&gt;store</title>
<path fill="none" stroke="black" d="M102.205,-50.1961C111.288,-45.8894 120.631,-41.4595 129.321,-37.3393"/>
<polygon fill="black" stroke="black" points="130.914,-40.4574 138.45,-33.0106 127.915,-34.1323 130.914,-40.4574"/>
</g>
<!-- apprt -->
<g id="node4" class="node"><title>apprt</title>
<ellipse fill="none" stroke="black" cx="306" cy="-112" rx="64.1938" ry="26.7407"/>
<text text-anchor="middle" x="306" y="-115.8" font-family="Times,serif" font-size="14.00">Application 1</text>
<text text-anchor="middle" x="306" y="-100.8" font-family="Times,serif" font-size="14.00">(real time)</text>
</g>
<!-- stream&#45;&gt;apprt -->
<g id="edge3" class="edge"><title>stream&#45;&gt;apprt</title>
<path fill="none" stroke="black" d="M102.423,-92.0294C113.981,-95.544 126.31,-98.8124 138,-101 168.274,-106.665 202.11,-109.525 231.367,-110.931"/>
<polygon fill="black" stroke="black" points="231.37,-114.434 241.512,-111.37 231.672,-107.441 231.37,-114.434"/>
</g>
<!-- idres&#45;&gt;apprt -->
<g id="edge4" class="edge"><title>idres&#45;&gt;apprt</title>
<path fill="none" stroke="black" d="M207.105,-84.4444C221.147,-88.3971 237.408,-92.9741 252.594,-97.2487"/>
<polygon fill="black" stroke="black" points="207.894,-81.0304 197.319,-81.6899 205.997,-87.7685 207.894,-81.0304"/>
</g>
<!-- appreq -->
<g id="node5" class="node"><title>appreq</title>
<ellipse fill="none" stroke="black" cx="306" cy="-33" rx="70.0071" ry="26.7407"/>
<text text-anchor="middle" x="306" y="-36.8" font-family="Times,serif" font-size="14.00">Application 2</text>
<text text-anchor="middle" x="306" y="-21.8" font-family="Times,serif" font-size="14.00">(request based)</text>
</g>
<!-- idres&#45;&gt;appreq -->
<g id="edge5" class="edge"><title>idres&#45;&gt;appreq</title>
<path fill="none" stroke="black" d="M207.204,-62.7009C220.715,-58.5975 236.27,-53.8737 250.941,-49.4179"/>
<polygon fill="black" stroke="black" points="205.871,-59.448 197.319,-65.703 207.905,-66.146 205.871,-59.448"/>
</g>
<!-- store&#45;&gt;appreq -->
<g id="edge6" class="edge"><title>store&#45;&gt;appreq</title>
<path fill="none" stroke="black" d="M209.783,-23.1256C218.788,-24.0595 228.59,-25.076 238.368,-26.09"/>
<polygon fill="black" stroke="black" points="209.934,-19.6226 199.626,-22.0724 209.212,-26.5853 209.934,-19.6226"/>
</g>
</g>
</svg>
