<?xml version="1.0" encoding="UTF-8" standalone="no"?>
<!DOCTYPE svg PUBLIC "-//W3C//DTD SVG 1.1//EN"
 "http://www.w3.org/Graphics/SVG/1.1/DTD/svg11.dtd">
<!-- Generated by graphviz version 2.36.0 (20140111.2315)
 -->
<!-- Title: G Pages: 1 -->
<svg width="652pt" height="445pt"
 viewBox="0.00 0.00 652.00 445.00" xmlns="http://www.w3.org/2000/svg" xmlns:xlink="http://www.w3.org/1999/xlink">
<g id="graph0" class="graph" transform="scale(1 1) rotate(0) translate(4 441)">
<title>G</title>
<polygon fill="white" stroke="none" points="-4,4 -4,-441 648,-441 648,4 -4,4"/>
<g id="clust1" class="cluster"><title>cluster_service</title>
<polygon fill="none" stroke="black" points="434,-100 434,-337 636,-337 636,-100 434,-100"/>
<text text-anchor="middle" x="535" y="-321.8" font-family="Times,serif" font-size="14.00">IDRES Service</text>
</g>
<g id="clust2" class="cluster"><title>cluster_gdbsync</title>
<polygon fill="none" stroke="black" points="180,-294 180,-429 414,-429 414,-294 180,-294"/>
<text text-anchor="middle" x="297" y="-413.8" font-family="Times,serif" font-size="14.00">Database Synchronization</text>
</g>
<g id="clust3" class="cluster"><title>cluster_gprocessor</title>
<polygon fill="none" stroke="black" points="180,-151 180,-286 414,-286 414,-151 180,-151"/>
<text text-anchor="middle" x="297" y="-270.8" font-family="Times,serif" font-size="14.00">Data Stream Processing</text>
</g>
<g id="clust4" class="cluster"><title>cluster_gui</title>
<polygon fill="none" stroke="black" points="166,-8 166,-143 414,-143 414,-8 166,-8"/>
<text text-anchor="middle" x="290" y="-127.8" font-family="Times,serif" font-size="14.00">User Interface</text>
</g>
<!-- serviceNode1 -->
<g id="node1" class="node"><title>serviceNode1</title>
<ellipse fill="none" stroke="black" cx="535" cy="-288" rx="92.8835" ry="18"/>
<text text-anchor="middle" x="535" y="-284.3" font-family="Times,serif" font-size="14.00">IDRES Service Node 1</text>
</g>
<!-- serviceNode2 -->
<g id="node2" class="node"><title>serviceNode2</title>
<ellipse fill="none" stroke="black" cx="535" cy="-234" rx="92.8835" ry="18"/>
<text text-anchor="middle" x="535" y="-230.3" font-family="Times,serif" font-size="14.00">IDRES Service Node 2</text>
</g>
<!-- serviceNode3 -->
<g id="node3" class="node"><title>serviceNode3</title>
<ellipse fill="none" stroke="black" cx="535" cy="-180" rx="92.8835" ry="18"/>
<text text-anchor="middle" x="535" y="-176.3" font-family="Times,serif" font-size="14.00">IDRES Service Node 3</text>
</g>
<!-- serviceNode4 -->
<g id="node4" class="node"><title>serviceNode4</title>
<ellipse fill="none" stroke="black" cx="535" cy="-126" rx="92.8835" ry="18"/>
<text text-anchor="middle" x="535" y="-122.3" font-family="Times,serif" font-size="14.00">IDRES Service Node 4</text>
</g>
<!-- dbsync -->
<g id="node5" class="node"><title>dbsync</title>
<ellipse fill="none" stroke="black" cx="231" cy="-350" rx="42.3529" ry="37.4533"/>
<text text-anchor="middle" x="231" y="-361.3" font-family="Times,serif" font-size="14.00">Custom</text>
<text text-anchor="middle" x="231" y="-346.3" font-family="Times,serif" font-size="14.00">Adapter</text>
<text text-anchor="middle" x="231" y="-331.3" font-family="Times,serif" font-size="14.00">Logic</text>
</g>
<!-- udbsync -->
<g id="node6" class="node"><title>udbsync</title>
<ellipse fill="none" stroke="red" cx="365" cy="-350" rx="40.1111" ry="48.1667"/>
<text text-anchor="middle" x="365" y="-368.8" font-family="Times,serif" font-size="14.00">IDRES</text>
<text text-anchor="middle" x="365" y="-353.8" font-family="Times,serif" font-size="14.00">Update</text>
<text text-anchor="middle" x="365" y="-338.8" font-family="Times,serif" font-size="14.00">Client</text>
<text text-anchor="middle" x="365" y="-323.8" font-family="Times,serif" font-size="14.00">Library</text>
</g>
<!-- dbsync&#45;&gt;udbsync -->
<g id="edge1" class="edge"><title>dbsync&#45;&gt;udbsync</title>
<path fill="none" stroke="black" d="M273.766,-350C286.52,-350 300.676,-350 313.922,-350"/>
<polygon fill="black" stroke="black" points="314.306,-353.5 324.306,-350 314.306,-346.5 314.306,-353.5"/>
</g>
<!-- udbsync&#45;&gt;serviceNode1 -->
<g id="edge2" class="edge"><title>udbsync&#45;&gt;serviceNode1</title>
<path fill="none" stroke="black" d="M403.702,-336.086C426.607,-327.633 456.189,-316.716 481.376,-307.421"/>
<polygon fill="black" stroke="black" points="482.622,-310.692 490.791,-303.946 480.198,-304.125 482.622,-310.692"/>
</g>
<!-- udbsync&#45;&gt;serviceNode2 -->
<g id="edge3" class="edge"><title>udbsync&#45;&gt;serviceNode2</title>
<path fill="none" stroke="black" d="M400.403,-326.246C429.634,-306.062 471.349,-277.259 500.36,-257.227"/>
<polygon fill="black" stroke="black" points="502.688,-259.874 508.928,-251.312 498.71,-254.113 502.688,-259.874"/>
</g>
<!-- udbsync&#45;&gt;serviceNode3 -->
<g id="edge4" class="edge"><title>udbsync&#45;&gt;serviceNode3</title>
<path fill="none" stroke="black" d="M396.424,-319.214C428.676,-286.578 479.015,-235.64 509.027,-205.27"/>
<polygon fill="black" stroke="black" points="511.657,-207.589 516.196,-198.016 506.678,-202.668 511.657,-207.589"/>
</g>
<!-- udbsync&#45;&gt;serviceNode4 -->
<g id="edge5" class="edge"><title>udbsync&#45;&gt;serviceNode4</title>
<path fill="none" stroke="black" d="M392.62,-314.507C426.496,-269.339 484.221,-192.373 514.362,-152.184"/>
<polygon fill="black" stroke="black" points="517.331,-154.059 520.531,-143.959 511.731,-149.859 517.331,-154.059"/>
</g>
<!-- processor -->
<g id="node7" class="node"><title>processor</title>
<ellipse fill="none" stroke="black" cx="231" cy="-207" rx="42.3529" ry="37.4533"/>
<text text-anchor="middle" x="231" y="-218.3" font-family="Times,serif" font-size="14.00">Custom</text>
<text text-anchor="middle" x="231" y="-203.3" font-family="Times,serif" font-size="14.00">Adapter</text>
<text text-anchor="middle" x="231" y="-188.3" font-family="Times,serif" font-size="14.00">Logic</text>
</g>
<!-- uprocessor -->
<g id="node8" class="node"><title>uprocessor</title>
<ellipse fill="none" stroke="red" cx="365" cy="-207" rx="40.1111" ry="48.1667"/>
<text text-anchor="middle" x="365" y="-225.8" font-family="Times,serif" font-size="14.00">IDRES</text>
<text text-anchor="middle" x="365" y="-210.8" font-family="Times,serif" font-size="14.00">Update</text>
<text text-anchor="middle" x="365" y="-195.8" font-family="Times,serif" font-size="14.00">Client</text>
<text text-anchor="middle" x="365" y="-180.8" font-family="Times,serif" font-size="14.00">Library</text>
</g>
<!-- processor&#45;&gt;uprocessor -->
<g id="edge6" class="edge"><title>processor&#45;&gt;uprocessor</title>
<path fill="none" stroke="black" d="M273.766,-207C286.52,-207 300.676,-207 313.922,-207"/>
<polygon fill="black" stroke="black" points="314.306,-210.5 324.306,-207 314.306,-203.5 314.306,-210.5"/>
</g>
<!-- uprocessor&#45;&gt;serviceNode1 -->
<g id="edge7" class="edge"><title>uprocessor&#45;&gt;serviceNode1</title>
<path fill="none" stroke="black" d="M402.868,-224.776C428.53,-237.148 462.868,-253.704 489.968,-266.77"/>
<polygon fill="black" stroke="black" points="488.698,-270.044 499.226,-271.234 491.738,-263.738 488.698,-270.044"/>
</g>
<!-- uprocessor&#45;&gt;serviceNode2 -->
<g id="edge8" class="edge"><title>uprocessor&#45;&gt;serviceNode2</title>
<path fill="none" stroke="black" d="M404.965,-213.262C419.253,-215.559 436.01,-218.252 452.629,-220.922"/>
<polygon fill="black" stroke="black" points="452.507,-224.448 462.936,-222.579 453.618,-217.536 452.507,-224.448"/>
</g>
<!-- uprocessor&#45;&gt;serviceNode3 -->
<g id="edge9" class="edge"><title>uprocessor&#45;&gt;serviceNode3</title>
<path fill="none" stroke="black" d="M404.965,-200.738C419.253,-198.441 436.01,-195.748 452.629,-193.078"/>
<polygon fill="black" stroke="black" points="453.618,-196.464 462.936,-191.421 452.507,-189.552 453.618,-196.464"/>
</g>
<!-- uprocessor&#45;&gt;serviceNode4 -->
<g id="edge10" class="edge"><title>uprocessor&#45;&gt;serviceNode4</title>
<path fill="none" stroke="black" d="M402.868,-189.224C428.53,-176.852 462.868,-160.296 489.968,-147.23"/>
<polygon fill="black" stroke="black" points="491.738,-150.262 499.226,-142.766 488.698,-143.956 491.738,-150.262"/>
</g>
<!-- ui -->
<g id="node9" class="node"><title>ui</title>
<ellipse fill="none" stroke="black" cx="231" cy="-64" rx="56.6372" ry="26.7407"/>
<text text-anchor="middle" x="231" y="-67.8" font-family="Times,serif" font-size="14.00">Application</text>
<text text-anchor="middle" x="231" y="-52.8" font-family="Times,serif" font-size="14.00">Code</text>
</g>
<!-- uui -->
<g id="node10" class="node"><title>uui</title>
<ellipse fill="none" stroke="red" cx="365" cy="-64" rx="40.1111" ry="48.1667"/>
<text text-anchor="middle" x="365" y="-82.8" font-family="Times,serif" font-size="14.00">IDRES</text>
<text text-anchor="middle" x="365" y="-67.8" font-family="Times,serif" font-size="14.00">Update</text>
<text text-anchor="middle" x="365" y="-52.8" font-family="Times,serif" font-size="14.00">Client</text>
<text text-anchor="middle" x="365" y="-37.8" font-family="Times,serif" font-size="14.00">Library</text>
</g>
<!-- ui&#45;&gt;uui -->
<g id="edge11" class="edge"><title>ui&#45;&gt;uui</title>
<path fill="none" stroke="black" d="M287.597,-64C296.51,-64 305.683,-64 314.443,-64"/>
<polygon fill="black" stroke="black" points="314.496,-67.5001 324.496,-64 314.496,-60.5001 314.496,-67.5001"/>
</g>
<!-- uui&#45;&gt;serviceNode1 -->
<g id="edge12" class="edge"><title>uui&#45;&gt;serviceNode1</title>
<path fill="none" stroke="black" d="M392.62,-99.4935C426.496,-144.661 484.221,-221.627 514.362,-261.816"/>
<polygon fill="black" stroke="black" points="511.731,-264.141 520.531,-270.041 517.331,-259.941 511.731,-264.141"/>
</g>
<!-- uui&#45;&gt;serviceNode2 -->
<g id="edge13" class="edge"><title>uui&#45;&gt;serviceNode2</title>
<path fill="none" stroke="black" d="M396.424,-94.7857C428.676,-127.422 479.015,-178.36 509.027,-208.73"/>
<polygon fill="black" stroke="black" points="506.678,-211.332 516.196,-215.984 511.657,-206.411 506.678,-211.332"/>
</g>
<!-- uui&#45;&gt;serviceNode3 -->
<g id="edge14" class="edge"><title>uui&#45;&gt;serviceNode3</title>
<path fill="none" stroke="black" d="M400.403,-87.7542C429.634,-107.938 471.349,-136.741 500.36,-156.773"/>
<polygon fill="black" stroke="black" points="498.71,-159.887 508.928,-162.688 502.688,-154.126 498.71,-159.887"/>
</g>
<!-- uui&#45;&gt;serviceNode4 -->
<g id="edge15" class="edge"><title>uui&#45;&gt;serviceNode4</title>
<path fill="none" stroke="black" d="M403.702,-77.914C426.607,-86.3667 456.189,-97.2841 481.376,-106.579"/>
<polygon fill="black" stroke="black" points="480.198,-109.875 490.791,-110.054 482.622,-103.308 480.198,-109.875"/>
</g>
<!-- vesseldb -->
<g id="node11" class="node"><title>vesseldb</title>
<polygon fill="none" stroke="black" points="137.351,-403 28.6196,-403 0.648502,-297 109.38,-297 137.351,-403"/>
<text text-anchor="middle" x="69" y="-361.3" font-family="Times,serif" font-size="14.00">Existing</text>
<text text-anchor="middle" x="69" y="-346.3" font-family="Times,serif" font-size="14.00">Vessel</text>
<text text-anchor="middle" x="69" y="-331.3" font-family="Times,serif" font-size="14.00">Database</text>
</g>
<!-- vesseldb&#45;&gt;dbsync -->
<g id="edge16" class="edge"><title>vesseldb&#45;&gt;dbsync</title>
<path fill="none" stroke="black" d="M133.814,-350C152.247,-350 171.876,-350 188.563,-350"/>
<polygon fill="black" stroke="black" points="133.723,-346.5 123.723,-350 133.723,-353.5 133.723,-346.5"/>
</g>
<!-- datastream -->
<g id="node12" class="node"><title>datastream</title>
<polygon fill="none" stroke="black" points="99.5,-219 26.5,-219 26.5,-195 99.5,-195 111.5,-207 99.5,-219"/>
<text text-anchor="middle" x="69" y="-203.3" font-family="Times,serif" font-size="14.00">Data Stream</text>
</g>
<!-- datastream&#45;&gt;processor -->
<g id="edge17" class="edge"><title>datastream&#45;&gt;processor</title>
<path fill="none" stroke="black" d="M111.62,-207C131.911,-207 156.519,-207 178.031,-207"/>
<polygon fill="black" stroke="black" points="178.31,-210.5 188.31,-207 178.31,-203.5 178.31,-210.5"/>
</g>
<!-- operator -->
<g id="node13" class="node"><title>operator</title>
<ellipse fill="none" stroke="black" cx="69" cy="-64" rx="42.4939" ry="42.4939"/>
<text text-anchor="middle" x="69" y="-60.3" font-family="Times,serif" font-size="14.00">Operator</text>
</g>
<!-- operator&#45;&gt;ui -->
<g id="edge18" class="edge"><title>operator&#45;&gt;ui</title>
<path fill="none" stroke="black" d="M111.62,-64C127.643,-64 146.356,-64 164.112,-64"/>
<polygon fill="black" stroke="black" points="164.428,-67.5001 174.428,-64 164.428,-60.5001 164.428,-67.5001"/>
</g>
</g>
</svg>
